<mxfile host="app.diagrams.net" modified="2023-12-09T16:47:53.017Z" agent="Mozilla/5.0 (Windows NT 10.0; Win64; x64) AppleWebKit/537.36 (KHTML, like Gecko) Chrome/119.0.0.0 Safari/537.36 Edg/119.0.0.0" etag="XqpH99D7iSgxcf33Dipc" version="22.1.7" type="device">
  <diagram name="Seite-1" id="AeO4qvntRtWrmaCHOUka">
    <mxGraphModel dx="1554" dy="823" grid="1" gridSize="10" guides="1" tooltips="1" connect="1" arrows="1" fold="1" page="1" pageScale="1" pageWidth="1169" pageHeight="827" math="0" shadow="0">
      <root>
        <mxCell id="0" />
        <mxCell id="1" parent="0" />
        <mxCell id="aijV-xNPyVsxa7-gIA_6-5" value="" style="group" vertex="1" connectable="0" parent="1">
          <mxGeometry x="350" y="140" width="250" height="110" as="geometry" />
        </mxCell>
        <mxCell id="aijV-xNPyVsxa7-gIA_6-2" value="Fib(4)" style="rounded=1;whiteSpace=wrap;html=1;" vertex="1" parent="aijV-xNPyVsxa7-gIA_6-5">
          <mxGeometry x="50" width="120" height="60" as="geometry" />
        </mxCell>
        <mxCell id="aijV-xNPyVsxa7-gIA_6-3" value="" style="endArrow=none;html=1;rounded=0;" edge="1" parent="aijV-xNPyVsxa7-gIA_6-5">
          <mxGeometry width="50" height="50" relative="1" as="geometry">
            <mxPoint x="-30" y="110" as="sourcePoint" />
            <mxPoint x="100" y="60" as="targetPoint" />
          </mxGeometry>
        </mxCell>
        <mxCell id="aijV-xNPyVsxa7-gIA_6-4" value="" style="endArrow=none;html=1;rounded=0;" edge="1" parent="aijV-xNPyVsxa7-gIA_6-5">
          <mxGeometry width="50" height="50" relative="1" as="geometry">
            <mxPoint x="250" y="110" as="sourcePoint" />
            <mxPoint x="120" y="60" as="targetPoint" />
          </mxGeometry>
        </mxCell>
        <mxCell id="aijV-xNPyVsxa7-gIA_6-6" value="" style="group" vertex="1" connectable="0" parent="1">
          <mxGeometry x="550" y="250" width="250" height="110" as="geometry" />
        </mxCell>
        <mxCell id="aijV-xNPyVsxa7-gIA_6-7" value="Fib(-2)=fib(2)" style="rounded=1;whiteSpace=wrap;html=1;" vertex="1" parent="aijV-xNPyVsxa7-gIA_6-6">
          <mxGeometry x="50" width="120" height="60" as="geometry" />
        </mxCell>
        <mxCell id="aijV-xNPyVsxa7-gIA_6-8" value="" style="endArrow=none;html=1;rounded=0;" edge="1" parent="aijV-xNPyVsxa7-gIA_6-6">
          <mxGeometry width="50" height="50" relative="1" as="geometry">
            <mxPoint x="30" y="110" as="sourcePoint" />
            <mxPoint x="100" y="60" as="targetPoint" />
          </mxGeometry>
        </mxCell>
        <mxCell id="aijV-xNPyVsxa7-gIA_6-9" value="" style="endArrow=none;html=1;rounded=0;" edge="1" parent="aijV-xNPyVsxa7-gIA_6-6">
          <mxGeometry width="50" height="50" relative="1" as="geometry">
            <mxPoint x="210" y="110" as="sourcePoint" />
            <mxPoint x="120" y="60" as="targetPoint" />
          </mxGeometry>
        </mxCell>
        <mxCell id="aijV-xNPyVsxa7-gIA_6-26" value="" style="endArrow=none;dashed=1;html=1;dashPattern=1 3;strokeWidth=2;rounded=0;" edge="1" parent="aijV-xNPyVsxa7-gIA_6-6">
          <mxGeometry width="50" height="50" relative="1" as="geometry">
            <mxPoint x="-520" y="80" as="sourcePoint" />
            <mxPoint x="400" y="90" as="targetPoint" />
          </mxGeometry>
        </mxCell>
        <mxCell id="aijV-xNPyVsxa7-gIA_6-12" value="" style="group" vertex="1" connectable="0" parent="1">
          <mxGeometry x="150" y="250" width="250" height="110" as="geometry" />
        </mxCell>
        <mxCell id="aijV-xNPyVsxa7-gIA_6-13" value="Fib(4-1)=fib(3)" style="rounded=1;whiteSpace=wrap;html=1;" vertex="1" parent="aijV-xNPyVsxa7-gIA_6-12">
          <mxGeometry x="50" width="120" height="60" as="geometry" />
        </mxCell>
        <mxCell id="aijV-xNPyVsxa7-gIA_6-14" value="" style="endArrow=none;html=1;rounded=0;" edge="1" parent="aijV-xNPyVsxa7-gIA_6-12">
          <mxGeometry width="50" height="50" relative="1" as="geometry">
            <mxPoint x="20" y="110" as="sourcePoint" />
            <mxPoint x="100" y="60" as="targetPoint" />
          </mxGeometry>
        </mxCell>
        <mxCell id="aijV-xNPyVsxa7-gIA_6-15" value="" style="endArrow=none;html=1;rounded=0;" edge="1" parent="aijV-xNPyVsxa7-gIA_6-12">
          <mxGeometry width="50" height="50" relative="1" as="geometry">
            <mxPoint x="220" y="110" as="sourcePoint" />
            <mxPoint x="120" y="60" as="targetPoint" />
          </mxGeometry>
        </mxCell>
        <mxCell id="aijV-xNPyVsxa7-gIA_6-16" value="fib(3-1) = fib(2)" style="rounded=1;whiteSpace=wrap;html=1;" vertex="1" parent="1">
          <mxGeometry x="120" y="360" width="120" height="60" as="geometry" />
        </mxCell>
        <mxCell id="aijV-xNPyVsxa7-gIA_6-17" value="fib(3-2)=fib(1)" style="rounded=1;whiteSpace=wrap;html=1;" vertex="1" parent="1">
          <mxGeometry x="340" y="360" width="120" height="60" as="geometry" />
        </mxCell>
        <mxCell id="aijV-xNPyVsxa7-gIA_6-18" value="fib(2-1)=fib(1)" style="rounded=1;whiteSpace=wrap;html=1;" vertex="1" parent="1">
          <mxGeometry x="510" y="360" width="120" height="60" as="geometry" />
        </mxCell>
        <mxCell id="aijV-xNPyVsxa7-gIA_6-19" value="fib(2-2)=fib(0)" style="rounded=1;whiteSpace=wrap;html=1;" vertex="1" parent="1">
          <mxGeometry x="740" y="360" width="120" height="60" as="geometry" />
        </mxCell>
        <mxCell id="aijV-xNPyVsxa7-gIA_6-20" value="fib(2-1)=fib(1)" style="rounded=1;whiteSpace=wrap;html=1;" vertex="1" parent="1">
          <mxGeometry x="10" y="460" width="120" height="60" as="geometry" />
        </mxCell>
        <mxCell id="aijV-xNPyVsxa7-gIA_6-21" value="fib(2-2)=fib(0)" style="rounded=1;whiteSpace=wrap;html=1;" vertex="1" parent="1">
          <mxGeometry x="200" y="460" width="120" height="60" as="geometry" />
        </mxCell>
        <mxCell id="aijV-xNPyVsxa7-gIA_6-23" value="" style="endArrow=none;html=1;rounded=0;entryX=0.25;entryY=1;entryDx=0;entryDy=0;" edge="1" parent="1" target="aijV-xNPyVsxa7-gIA_6-16">
          <mxGeometry width="50" height="50" relative="1" as="geometry">
            <mxPoint x="60" y="460" as="sourcePoint" />
            <mxPoint x="110" y="410" as="targetPoint" />
          </mxGeometry>
        </mxCell>
        <mxCell id="aijV-xNPyVsxa7-gIA_6-24" value="" style="endArrow=none;html=1;rounded=0;entryX=0.25;entryY=1;entryDx=0;entryDy=0;exitX=0.5;exitY=0;exitDx=0;exitDy=0;" edge="1" parent="1" source="aijV-xNPyVsxa7-gIA_6-21">
          <mxGeometry width="50" height="50" relative="1" as="geometry">
            <mxPoint x="110" y="460" as="sourcePoint" />
            <mxPoint x="200" y="420" as="targetPoint" />
          </mxGeometry>
        </mxCell>
        <mxCell id="aijV-xNPyVsxa7-gIA_6-25" value="" style="endArrow=none;dashed=1;html=1;dashPattern=1 3;strokeWidth=2;rounded=0;" edge="1" parent="1">
          <mxGeometry width="50" height="50" relative="1" as="geometry">
            <mxPoint x="30" y="200" as="sourcePoint" />
            <mxPoint x="950" y="210" as="targetPoint" />
          </mxGeometry>
        </mxCell>
        <mxCell id="aijV-xNPyVsxa7-gIA_6-27" value="" style="endArrow=none;dashed=1;html=1;dashPattern=1 3;strokeWidth=2;rounded=0;" edge="1" parent="1">
          <mxGeometry width="50" height="50" relative="1" as="geometry">
            <mxPoint x="20" y="430" as="sourcePoint" />
            <mxPoint x="960" y="440" as="targetPoint" />
          </mxGeometry>
        </mxCell>
        <mxCell id="aijV-xNPyVsxa7-gIA_6-28" value="" style="shape=table;startSize=0;container=1;collapsible=0;childLayout=tableLayout;fontSize=16;" vertex="1" parent="1">
          <mxGeometry x="950" y="70" width="210" height="460" as="geometry" />
        </mxCell>
        <mxCell id="aijV-xNPyVsxa7-gIA_6-49" style="shape=tableRow;horizontal=0;startSize=0;swimlaneHead=0;swimlaneBody=0;strokeColor=inherit;top=0;left=0;bottom=0;right=0;collapsible=0;dropTarget=0;fillColor=none;points=[[0,0.5],[1,0.5]];portConstraint=eastwest;fontSize=16;" vertex="1" parent="aijV-xNPyVsxa7-gIA_6-28">
          <mxGeometry width="210" height="50" as="geometry" />
        </mxCell>
        <mxCell id="aijV-xNPyVsxa7-gIA_6-50" value="N" style="shape=partialRectangle;html=1;whiteSpace=wrap;connectable=0;strokeColor=inherit;overflow=hidden;fillColor=none;top=0;left=0;bottom=0;right=0;pointerEvents=1;fontSize=16;" vertex="1" parent="aijV-xNPyVsxa7-gIA_6-49">
          <mxGeometry width="40" height="50" as="geometry">
            <mxRectangle width="40" height="50" as="alternateBounds" />
          </mxGeometry>
        </mxCell>
        <mxCell id="aijV-xNPyVsxa7-gIA_6-51" value="recursive calls" style="shape=partialRectangle;html=1;whiteSpace=wrap;connectable=0;strokeColor=inherit;overflow=hidden;fillColor=none;top=0;left=0;bottom=0;right=0;pointerEvents=1;fontSize=16;" vertex="1" parent="aijV-xNPyVsxa7-gIA_6-49">
          <mxGeometry x="40" width="90" height="50" as="geometry">
            <mxRectangle width="90" height="50" as="alternateBounds" />
          </mxGeometry>
        </mxCell>
        <mxCell id="aijV-xNPyVsxa7-gIA_6-52" value="calls stack" style="shape=partialRectangle;html=1;whiteSpace=wrap;connectable=0;strokeColor=inherit;overflow=hidden;fillColor=none;top=0;left=0;bottom=0;right=0;pointerEvents=1;fontSize=16;" vertex="1" parent="aijV-xNPyVsxa7-gIA_6-49">
          <mxGeometry x="130" width="80" height="50" as="geometry">
            <mxRectangle width="80" height="50" as="alternateBounds" />
          </mxGeometry>
        </mxCell>
        <mxCell id="aijV-xNPyVsxa7-gIA_6-45" style="shape=tableRow;horizontal=0;startSize=0;swimlaneHead=0;swimlaneBody=0;strokeColor=inherit;top=0;left=0;bottom=0;right=0;collapsible=0;dropTarget=0;fillColor=none;points=[[0,0.5],[1,0.5]];portConstraint=eastwest;fontSize=16;" vertex="1" parent="aijV-xNPyVsxa7-gIA_6-28">
          <mxGeometry y="50" width="210" height="90" as="geometry" />
        </mxCell>
        <mxCell id="aijV-xNPyVsxa7-gIA_6-46" value="4" style="shape=partialRectangle;html=1;whiteSpace=wrap;connectable=0;strokeColor=inherit;overflow=hidden;fillColor=none;top=0;left=0;bottom=0;right=0;pointerEvents=1;fontSize=16;" vertex="1" parent="aijV-xNPyVsxa7-gIA_6-45">
          <mxGeometry width="40" height="90" as="geometry">
            <mxRectangle width="40" height="90" as="alternateBounds" />
          </mxGeometry>
        </mxCell>
        <mxCell id="aijV-xNPyVsxa7-gIA_6-47" value="1" style="shape=partialRectangle;html=1;whiteSpace=wrap;connectable=0;strokeColor=inherit;overflow=hidden;fillColor=none;top=0;left=0;bottom=0;right=0;pointerEvents=1;fontSize=16;" vertex="1" parent="aijV-xNPyVsxa7-gIA_6-45">
          <mxGeometry x="40" width="90" height="90" as="geometry">
            <mxRectangle width="90" height="90" as="alternateBounds" />
          </mxGeometry>
        </mxCell>
        <mxCell id="aijV-xNPyVsxa7-gIA_6-48" value="1" style="shape=partialRectangle;html=1;whiteSpace=wrap;connectable=0;strokeColor=inherit;overflow=hidden;fillColor=none;top=0;left=0;bottom=0;right=0;pointerEvents=1;fontSize=16;" vertex="1" parent="aijV-xNPyVsxa7-gIA_6-45">
          <mxGeometry x="130" width="80" height="90" as="geometry">
            <mxRectangle width="80" height="90" as="alternateBounds" />
          </mxGeometry>
        </mxCell>
        <mxCell id="aijV-xNPyVsxa7-gIA_6-29" value="" style="shape=tableRow;horizontal=0;startSize=0;swimlaneHead=0;swimlaneBody=0;strokeColor=inherit;top=0;left=0;bottom=0;right=0;collapsible=0;dropTarget=0;fillColor=none;points=[[0,0.5],[1,0.5]];portConstraint=eastwest;fontSize=16;" vertex="1" parent="aijV-xNPyVsxa7-gIA_6-28">
          <mxGeometry y="140" width="210" height="130" as="geometry" />
        </mxCell>
        <mxCell id="aijV-xNPyVsxa7-gIA_6-30" value="3" style="shape=partialRectangle;html=1;whiteSpace=wrap;connectable=0;strokeColor=inherit;overflow=hidden;fillColor=none;top=0;left=0;bottom=0;right=0;pointerEvents=1;fontSize=16;" vertex="1" parent="aijV-xNPyVsxa7-gIA_6-29">
          <mxGeometry width="40" height="130" as="geometry">
            <mxRectangle width="40" height="130" as="alternateBounds" />
          </mxGeometry>
        </mxCell>
        <mxCell id="aijV-xNPyVsxa7-gIA_6-31" value="2" style="shape=partialRectangle;html=1;whiteSpace=wrap;connectable=0;strokeColor=inherit;overflow=hidden;fillColor=none;top=0;left=0;bottom=0;right=0;pointerEvents=1;fontSize=16;" vertex="1" parent="aijV-xNPyVsxa7-gIA_6-29">
          <mxGeometry x="40" width="90" height="130" as="geometry">
            <mxRectangle width="90" height="130" as="alternateBounds" />
          </mxGeometry>
        </mxCell>
        <mxCell id="aijV-xNPyVsxa7-gIA_6-32" value="3" style="shape=partialRectangle;html=1;whiteSpace=wrap;connectable=0;strokeColor=inherit;overflow=hidden;fillColor=none;top=0;left=0;bottom=0;right=0;pointerEvents=1;fontSize=16;" vertex="1" parent="aijV-xNPyVsxa7-gIA_6-29">
          <mxGeometry x="130" width="80" height="130" as="geometry">
            <mxRectangle width="80" height="130" as="alternateBounds" />
          </mxGeometry>
        </mxCell>
        <mxCell id="aijV-xNPyVsxa7-gIA_6-33" value="" style="shape=tableRow;horizontal=0;startSize=0;swimlaneHead=0;swimlaneBody=0;strokeColor=inherit;top=0;left=0;bottom=0;right=0;collapsible=0;dropTarget=0;fillColor=none;points=[[0,0.5],[1,0.5]];portConstraint=eastwest;fontSize=16;" vertex="1" parent="aijV-xNPyVsxa7-gIA_6-28">
          <mxGeometry y="270" width="210" height="100" as="geometry" />
        </mxCell>
        <mxCell id="aijV-xNPyVsxa7-gIA_6-34" value="2" style="shape=partialRectangle;html=1;whiteSpace=wrap;connectable=0;strokeColor=inherit;overflow=hidden;fillColor=none;top=0;left=0;bottom=0;right=0;pointerEvents=1;fontSize=16;" vertex="1" parent="aijV-xNPyVsxa7-gIA_6-33">
          <mxGeometry width="40" height="100" as="geometry">
            <mxRectangle width="40" height="100" as="alternateBounds" />
          </mxGeometry>
        </mxCell>
        <mxCell id="aijV-xNPyVsxa7-gIA_6-35" value="4" style="shape=partialRectangle;html=1;whiteSpace=wrap;connectable=0;strokeColor=inherit;overflow=hidden;fillColor=none;top=0;left=0;bottom=0;right=0;pointerEvents=1;fontSize=16;" vertex="1" parent="aijV-xNPyVsxa7-gIA_6-33">
          <mxGeometry x="40" width="90" height="100" as="geometry">
            <mxRectangle width="90" height="100" as="alternateBounds" />
          </mxGeometry>
        </mxCell>
        <mxCell id="aijV-xNPyVsxa7-gIA_6-36" value="7" style="shape=partialRectangle;html=1;whiteSpace=wrap;connectable=0;strokeColor=inherit;overflow=hidden;fillColor=none;top=0;left=0;bottom=0;right=0;pointerEvents=1;fontSize=16;" vertex="1" parent="aijV-xNPyVsxa7-gIA_6-33">
          <mxGeometry x="130" width="80" height="100" as="geometry">
            <mxRectangle width="80" height="100" as="alternateBounds" />
          </mxGeometry>
        </mxCell>
        <mxCell id="aijV-xNPyVsxa7-gIA_6-37" value="" style="shape=tableRow;horizontal=0;startSize=0;swimlaneHead=0;swimlaneBody=0;strokeColor=inherit;top=0;left=0;bottom=0;right=0;collapsible=0;dropTarget=0;fillColor=none;points=[[0,0.5],[1,0.5]];portConstraint=eastwest;fontSize=16;" vertex="1" parent="aijV-xNPyVsxa7-gIA_6-28">
          <mxGeometry y="370" width="210" height="90" as="geometry" />
        </mxCell>
        <mxCell id="aijV-xNPyVsxa7-gIA_6-38" value="1" style="shape=partialRectangle;html=1;whiteSpace=wrap;connectable=0;strokeColor=inherit;overflow=hidden;fillColor=none;top=0;left=0;bottom=0;right=0;pointerEvents=1;fontSize=16;" vertex="1" parent="aijV-xNPyVsxa7-gIA_6-37">
          <mxGeometry width="40" height="90" as="geometry">
            <mxRectangle width="40" height="90" as="alternateBounds" />
          </mxGeometry>
        </mxCell>
        <mxCell id="aijV-xNPyVsxa7-gIA_6-39" value="2" style="shape=partialRectangle;html=1;whiteSpace=wrap;connectable=0;strokeColor=inherit;overflow=hidden;fillColor=none;top=0;left=0;bottom=0;right=0;pointerEvents=1;fontSize=16;" vertex="1" parent="aijV-xNPyVsxa7-gIA_6-37">
          <mxGeometry x="40" width="90" height="90" as="geometry">
            <mxRectangle width="90" height="90" as="alternateBounds" />
          </mxGeometry>
        </mxCell>
        <mxCell id="aijV-xNPyVsxa7-gIA_6-40" value="9" style="shape=partialRectangle;html=1;whiteSpace=wrap;connectable=0;strokeColor=inherit;overflow=hidden;fillColor=none;top=0;left=0;bottom=0;right=0;pointerEvents=1;fontSize=16;" vertex="1" parent="aijV-xNPyVsxa7-gIA_6-37">
          <mxGeometry x="130" width="80" height="90" as="geometry">
            <mxRectangle width="80" height="90" as="alternateBounds" />
          </mxGeometry>
        </mxCell>
      </root>
    </mxGraphModel>
  </diagram>
</mxfile>
